<?xml version="1.0" encoding="utf-8" standalone="no"?>
<!DOCTYPE svg PUBLIC "-//W3C//DTD SVG 1.1//EN"
  "http://www.w3.org/Graphics/SVG/1.1/DTD/svg11.dtd">
<svg xmlns:xlink="http://www.w3.org/1999/xlink" width="363.6pt" height="27pt" viewBox="0 0 363.6 27" xmlns="http://www.w3.org/2000/svg" version="1.1">
 <metadata>
  <rdf:RDF xmlns:dc="http://purl.org/dc/elements/1.1/" xmlns:cc="http://creativecommons.org/ns#" xmlns:rdf="http://www.w3.org/1999/02/22-rdf-syntax-ns#">
   <cc:Work>
    <dc:type rdf:resource="http://purl.org/dc/dcmitype/StillImage"/>
    <dc:date>2023-11-22T15:15:34.788943</dc:date>
    <dc:format>image/svg+xml</dc:format>
    <dc:creator>
     <cc:Agent>
      <dc:title>Matplotlib v3.8.2, https://matplotlib.org/</dc:title>
     </cc:Agent>
    </dc:creator>
   </cc:Work>
  </rdf:RDF>
 </metadata>
 <defs>
  <style type="text/css">*{stroke-linejoin: round; stroke-linecap: butt}</style>
 </defs>
 <g id="figure_1">
  <g id="patch_1">
   <path d="M 0 27 
L 363.6 27 
L 363.6 0 
L 0 0 
L 0 27 
z
" style="fill: none"/>
  </g>
  <g id="axes_1">
   <g id="patch_2">
    <path d="M 283.5 4.5 
L 296.1 13.5 
L 283.5 22.5 
L 283.5 4.5 
z
" clip-path="url(#pc55af6fe29)" style="fill: none; stroke: #000000; stroke-width: 2; stroke-linecap: round"/>
   </g>
   <g id="line2d_1">
    <path d="M 19.8 13.5 
L 55.8 13.5 
L 58.8 4.5 
L 64.8 22.5 
L 70.8 4.5 
L 76.8 22.5 
L 82.8 4.5 
L 88.8 22.5 
L 91.8 13.5 
L 127.8 13.5 
" clip-path="url(#pc55af6fe29)" style="fill: none; stroke: #000000; stroke-width: 2; stroke-linecap: round"/>
   </g>
   <g id="line2d_2">
    <path d="M 127.8 13.5 
L 178.56 13.5 
M 178.56 4.5 
L 178.56 22.5 
M 185.04 4.5 
L 185.04 22.5 
M 185.04 13.5 
L 235.8 13.5 
" clip-path="url(#pc55af6fe29)" style="fill: none; stroke: #000000; stroke-width: 2; stroke-linecap: round"/>
   </g>
   <g id="line2d_3">
    <path d="M 235.8 13.5 
L 283.5 13.5 
M 296.1 4.5 
L 296.1 22.5 
M 296.1 13.5 
L 343.8 13.5 
" clip-path="url(#pc55af6fe29)" style="fill: none; stroke: #000000; stroke-width: 2; stroke-linecap: round"/>
   </g>
  </g>
 </g>
 <defs>
  <clipPath id="pc55af6fe29">
   <rect x="3.6" y="3.6" width="356.4" height="19.8"/>
  </clipPath>
 </defs>
</svg>
